<?xml version="1.0" encoding="UTF-8"?>
<svg
   version="1.1"
   xmlns="http://www.w3.org/2000/svg"
   xml:space="preserve"
   viewBox="0 0 74.082 63.519"
   width="280"
   height="71"
>
   <path d="m3.5363 30.015c0-16.523-20.533-30.015-45.866-30.015-25.353 0.014755-45.879 13.491-45.879 30.015v1.7517c0 17.539 17.952 31.752 45.866 31.752 28.082 0 45.858-14.212 45.858-31.752v-1.7517z" fill="#283373"/>
   <path d="m1.7639 30.015c0 15.581-19.739 28.225-44.092 28.225-24.353 0-44.107-12.645-44.107-28.225 0-15.581 19.739-28.225 44.092-28.225s44.107 12.623 44.107 28.225" fill="#ffcf00"/>
   <path d="m-56.985 21.103c-0.01465 0.03679-0.47087 0.50784-0.16921 0.8685 0.69892 0.88322 2.8472 1.3911 5.0103 0.9053 1.3022-0.28704 2.9576-1.6192 4.5615-2.8851 1.7289-1.3763 3.4652-2.7675 5.1942-3.3194 1.8467-0.58144 3.0165-0.33856 3.811-0.08833 0.84608 0.25761 1.8614 0.80963 3.4652 2.0167 3.0092 2.2595 15.141 12.865 17.253 14.691 1.6921-0.75075 9.1891-3.9892 19.379-6.2341-0.88287-5.4464-4.201-10.422-9.2112-14.492-6.9893 2.944-15.538 4.4676-23.882 0.39745-0.03677-0.01466-4.5615-2.1638-9.02-2.0534-6.6288 0.15456-9.4982 3.0177-12.544 6.0648z" fill="#fff"/>
   <path d="m-18.351 34.447c-0.14716-0.13248-14.258-12.497-17.459-14.904-1.8467-1.3984-2.8839-1.7591-3.9582-1.8842-0.55916-0.08095-1.3317 0.03679-1.8834 0.18401-1.4862 0.39745-3.4284 1.7149-5.1575 3.0692-1.7878 1.4352-3.4874 2.7748-5.0471 3.1281-2.0012 0.45633-4.4438-0.07358-5.5547-0.82433-0.45615-0.30178-0.77251-0.66242-0.92701-1.0157-0.412-0.96418 0.33844-1.7149 0.47087-1.8474l3.8993-4.2247c0.45615-0.44896 0.90494-0.9053 1.3758-1.3543-1.2654 0.16928-2.428 0.48576-3.5608 0.78754-1.4126 0.39745-2.7664 0.77282-4.1421 0.77282-0.5665 0-3.6565-0.50784-4.2378-0.65506-3.5241-0.96418-6.6288-1.9062-11.242-4.0702-5.54 4.1217-9.2481 9.2885-10.322 14.956 0.78722 0.21344 2.0675 0.58881 2.6191 0.72129 12.544 2.7896 16.436 5.6673 17.157 6.2561 0.77252-0.85376 1.8614-1.3984 3.1047-1.3984 1.3979 0 2.6412 0.6992 3.3917 1.7738 0.71366-0.56672 1.7142-1.0599 2.9943-1.0599 0.58121 0 1.1845 0.11776 1.7878 0.32386 1.4126 0.49313 2.1483 1.4352 2.5234 2.2816 0.47086-0.2061 1.0594-0.37537 1.751-0.37537 0.67687 0 1.3758 0.14721 2.0895 0.44897 2.3176 1.001 2.6781 3.2606 2.472 4.9754 0.16921-0.02203 0.33844-0.02203 0.50764-0.02203 2.7515 0 4.9734 2.2228 4.9734 4.9754 0 0.84642-0.22806 1.6413-0.60328 2.3552 0.75044 0.41216 2.656 1.3763 4.3114 1.1482 1.339-0.16927 1.8467-0.61824 2.0159-0.88322 0.13243-0.16927 0.26485-0.37536 0.13243-0.52993l-3.5388-3.9376s-0.58858-0.54465-0.3973-0.77283c0.20601-0.2208 0.5665 0.09571 0.8093 0.30178 1.8099 1.5088 3.995 3.7684 3.995 3.7684 0.03677 0.02203 0.18394 0.32386 0.99322 0.45634 0.69892 0.13248 1.9422 0.05154 2.7884-0.66241 0.22806-0.16928 0.43407-0.39745 0.62536-0.61826-0.02212 0.01466-0.02212 0.01466-0.03677 0.03679 0.89758-1.1482-0.09567-2.3405-0.09567-2.3405l-4.1274-4.6295s-0.58121-0.55201-0.39729-0.77282c0.19128-0.19136 0.5665 0.08833 0.8093 0.31649 1.3022 1.0967 3.171 2.9588 4.9367 4.6958 0.33843 0.24288 1.9055 1.2218 3.9582-0.13248 1.2434-0.8317 1.5082-1.8327 1.4641-2.5834-0.0883-1.001-0.86079-1.7149-0.86079-1.7149l-5.6503-5.6746s-0.60328-0.50785-0.37522-0.77282c0.16921-0.22081 0.55916 0.09571 0.8093 0.30177 1.7878 1.5088 6.6657 5.9765 6.6657 5.9765 0.07355 0.05892 1.751 1.2439 3.8257-0.07358 0.72836-0.47104 1.2213-1.1923 1.2581-2.0167 0.07355-1.4132-0.94172-2.2595-0.94172-2.2595" fill="#fff"/>
   <path d="m-45.72 41.637c-0.86079-0.01466-1.8246 0.51521-1.9571 0.43426-0.07355-0.03679 0.0589-0.39009 0.13242-0.60353 0.07355-0.2061 1.2434-3.6727-1.5597-4.8797-2.1483-0.92002-3.4652 0.11776-3.9213 0.58881-0.11035 0.1104-0.16921 0.1104-0.19128-0.03679-0.03677-0.62561-0.31637-2.3185-2.1776-2.8851-2.656-0.80962-4.3555 1.0378-4.7896 1.7149-0.18394-1.5088-1.4641-2.6938-3.0312-2.6938-1.6922 0-3.068 1.3764-3.09 3.0692 0 1.6928 1.3758 3.0692 3.0753 3.0692 0.82401 0 1.5818-0.31649 2.1262-0.86114 0.01465 0.01466 0.01465 0.03679 0.01465 0.1104-0.13242 0.75075-0.37522 3.5255 2.5234 4.6517 1.1698 0.45633 2.1483 0.11776 2.9796-0.44897 0.2428-0.16928 0.27958-0.09571 0.2428 0.13248-0.11035 0.71394 0.02212 2.2375 2.1703 3.1059 1.6186 0.66242 2.575-0.01465 3.215-0.60352 0.28697-0.24287 0.36054-0.20608 0.36054 0.1693 0.07355 2.0534 1.7878 3.6947 3.8626 3.6947 2.1483 0 3.8773-1.7296 3.8773-3.8641 0-2.1271-1.7289-3.8421-3.8626-3.8641" fill="#fff"/>
   <path d="m-17.807 32.953c-4.3481-3.8051-14.405-12.549-17.135-14.58-1.5671-1.1702-2.6191-1.7885-3.5462-2.0756-0.412-0.13248-0.99322-0.26496-1.751-0.26496-0.69158 0-1.4273 0.13248-2.2219 0.38272-1.751 0.55938-3.5168 1.9579-5.2162 3.2973l-0.09567 0.07358c-1.5818 1.2586-3.215 2.5614-4.4438 2.8263-0.54444 0.1104-1.0889 0.18401-1.6407 0.18401-1.3684 0-2.6338-0.39008-3.0826-0.99361-0.08092-0.09571-0.02202-0.26498 0.14716-0.49313l0.02212-0.03679 3.8183-4.129c2.9943-2.9955 5.8195-5.8218 12.36-5.9691h0.31636c4.0537 0 8.1224 1.8253 8.5712 2.0314 3.8036 1.8695 7.7251 2.8116 11.676 2.8116 4.1053 0 8.3651-1.0157 12.831-3.0692-0.49295-0.41954-1.0227-0.8317-1.545-1.2292-3.9213 1.7002-7.6515 2.5614-11.264 2.5614-3.6712 0-7.3647-0.88322-10.925-2.6349-0.19128-0.09571-4.6719-2.2081-9.3216-2.2081h-0.37522c-5.4812 0.13248-8.5565 2.0756-10.646 3.7684-2.0159 0.05892-3.7449 0.52994-5.3119 0.96418-1.3758 0.37537-2.575 0.71394-3.7302 0.71394-0.47087 0-1.3317-0.03679-1.4126-0.03679-1.3316-0.03679-8.0783-1.6928-13.442-3.7316-0.55179 0.39745-1.0742 0.7949-1.5892 1.1923 5.5989 2.2965 12.419 4.0627 14.582 4.2174 0.60329 0.03679 1.2434 0.1104 1.8834 0.1104 1.4273 0 2.8399-0.39009 4.2157-0.78754 0.8093-0.22816 1.7142-0.47105 2.656-0.66241-0.24279 0.2429-0.50764 0.49314-0.75044 0.75808l-3.8773 4.1954c-0.30165 0.30177-0.98587 1.1334-0.52972 2.1491 0.16921 0.41953 0.52972 0.80962 1.0153 1.1334 0.92701 0.61827 2.5824 1.0525 4.1274 1.0525 0.58122 0 1.1257-0.05154 1.6333-0.16928 1.6406-0.35328 3.3401-1.7296 5.1428-3.1649 1.4494-1.1482 3.5094-2.5981 5.0691-3.0324 0.43407-0.11039 0.97851-0.19135 1.4126-0.19135 0.13243 0 0.2428 0 0.36051 0.02213 1.03 0.13248 2.0305 0.49313 3.8183 1.8253 3.1857 2.392 17.334 14.757 17.459 14.889 0 0 0.90494 0.78754 0.85343 2.0683-0.03677 0.72129-0.43407 1.3616-1.133 1.8106-0.60328 0.37537-1.2213 0.58145-1.8467 0.58145-0.94172 0-1.5965-0.44897-1.6406-0.47105-0.05152-0.03679-4.8926-4.4823-6.6657-5.9691-0.27957-0.22815-0.5665-0.45633-0.82401-0.45633-0.1545 0-0.28692 0.05892-0.38256 0.16928-0.27958 0.34591 0.03677 0.8317 0.39729 1.1335l5.6503 5.6893s0.69892 0.66242 0.77251 1.5309c0.03677 0.9421-0.412 1.7296-1.339 2.3332-0.6548 0.43424-1.3317 0.6624-1.9938 0.6624-0.86816 0-1.4714-0.39745-1.6186-0.49313l-0.8093-0.78754c-1.4935-1.4573-3.0165-2.9808-4.1274-3.9008-0.26487-0.22816-0.5665-0.43426-0.84608-0.43426-0.13243 0-0.26485 0.05154-0.36052 0.14721-0.13243 0.15456-0.22071 0.39745 0.09567 0.8317 0.13243 0.16928 0.27958 0.31649 0.27958 0.31649l4.1274 4.6368c0.03677 0.03679 0.84608 1.0157 0.09567 1.9799l-0.15449 0.19136c-0.13243 0.12512-0.25751 0.2576-0.37522 0.37536-0.69892 0.58145-1.6406 0.64033-2.0159 0.64033-0.20602 0-0.38994-0.02213-0.5665-0.05892-0.41201-0.07358-0.67686-0.19138-0.80929-0.33858l-0.05152-0.05892c-0.22806-0.22081-2.3029-2.3552-4.0317-3.7831-0.22806-0.19136-0.50764-0.43426-0.8093-0.43426-0.1545 0-0.26484 0.05892-0.37522 0.16928-0.33844 0.37537 0.16921 0.92002 0.38992 1.1335l3.5241 3.8788c0 0.03679-0.0588 0.1104-0.13242 0.2429-0.13243 0.16928-0.54443 0.60352-1.8246 0.75808-0.1545 0.01465-0.32373 0.03679-0.47087 0.03679-1.3169 0-2.7148-0.64032-3.4505-1.0231 0.32373-0.69186 0.50765-1.4647 0.50765-2.2228 0-2.9-2.3543-5.2552-5.2531-5.2552h-0.18394c0.0883-1.3175-0.09567-3.8272-2.656-4.9387-0.73571-0.31648-1.4714-0.48576-2.2072-0.48576-0.5665 0-1.0889 0.09571-1.5965 0.27969-0.52972-1.0378-1.4126-1.7885-2.5677-2.1861-0.64008-0.2208-1.2581-0.33856-1.8834-0.33856-1.0742 0-2.0526 0.32385-2.9355 0.9421-0.84608-1.0525-2.1115-1.6781-3.4431-1.6781-1.1698 0-2.3029 0.47104-3.1269 1.3027-1.0962-0.8317-5.4443-3.5992-17.069-6.234-0.5665-0.13248-1.8614-0.49314-2.656-0.736-0.13243 0.61824-0.22072 1.2586-0.30165 1.8989 0 0 2.1483 0.50784 2.5604 0.60352 11.889 2.6422 15.803 5.3877 16.465 5.9028-0.22807 0.54464-0.33843 1.1261-0.33843 1.7149 0 2.4436 1.9938 4.4456 4.4438 4.4456 0.27957 0 0.54442-0.02203 0.8093-0.08095 0.37521 1.8106 1.545 3.1869 3.3548 3.8862 0.52235 0.2061 1.0521 0.30178 1.5818 0.30178 0.33844 0 0.67687-0.03679 1.0153-0.13248 0.33844 0.84642 1.0962 1.8989 2.7664 2.5834 0.58857 0.24289 1.1698 0.35329 1.751 0.35329 0.47086 0 0.92701-0.07358 1.3611-0.2429 0.8093 1.9579 2.7075 3.2606 4.8557 3.2606 1.4126 0 2.7738-0.56672 3.7669-1.6045 0.84608 0.47105 2.6412 1.3175 4.4438 1.3175 0.22807 0 0.45616-0.01465 0.68423-0.03679 1.7878-0.22081 2.6338-0.92002 3.0092-1.4647 0.07355-0.09571 0.13243-0.19136 0.19128-0.30177 0.412 0.1104 0.88286 0.2208 1.4273 0.2208 0.97851 0 1.9202-0.33856 2.8839-1.0304 0.94172-0.68449 1.6039-1.6413 1.6922-2.473v-0.03679c0.32371 0.05892 0.64007 0.09571 0.9638 0.09571 1.0153 0 1.9938-0.32386 2.9576-0.9421 1.8246-1.2071 2.1483-2.7675 2.1115-3.7904 0.31637 0.08096 0.64008 0.09571 0.97851 0.09571 0.94172 0 1.8834-0.27969 2.7664-0.84642 1.133-0.71395 1.8099-1.8253 1.9202-3.1281 0.07355-0.88322-0.14714-1.7738-0.60328-2.5244 3.0753-1.3175 10.079-3.8788 18.327-5.7483-0.058898-0.64033-0.14716-1.2807-0.26485-1.8989-9.9985 2.2965-17.437 5.5201-19.305 6.3445m-27.913 16.148c-1.9349 0-3.5168-1.5088-3.5755-3.4298 0-0.16927-0.02202-0.60352-0.39729-0.60352-0.14716 0-0.27958 0.09571-0.43408 0.22816-0.43407 0.39745-0.95643 0.79488-1.7657 0.79488-0.3605 0-0.75778-0.08096-1.1698-0.25024-2.0526-0.82434-2.0748-2.2375-1.9938-2.8042 0.01465-0.15456 0.03677-0.30178-0.08092-0.43426l-0.11037-0.09571h-0.13243c-0.11035 0-0.20601 0.03679-0.36052 0.15456-0.58121 0.41217-1.1624 0.61824-1.7289 0.61824-0.32371 0-0.64007-0.05892-0.97851-0.184-2.6928-1.0599-2.4867-3.5992-2.3543-4.3572 0.01465-0.14722-0.02202-0.27968-0.11772-0.35328l-0.18394-0.15456-0.16921 0.13248c-0.52972 0.50784-1.2066 0.7949-1.9422 0.7949-1.545 0-2.8031-1.266-2.8031-2.8116 0-1.5456 1.2581-2.8042 2.8031-2.7896 1.3979 0 2.5824 1.0599 2.7664 2.451l0.09567 0.75075 0.41937-0.64033c0.03677-0.07358 1.1845-1.7885 3.252-1.7885 0.39729 0 0.81664 0.05892 1.2287 0.19136 1.6554 0.50784 1.9422 2.0167 1.9791 2.6349 0.03677 0.36066 0.27958 0.37537 0.33844 0.37537 0.14716 0 0.2428-0.08833 0.31637-0.16928 0.32372-0.31648 1.0006-0.86113 2.0526-0.86113 0.49293 0 1.0006 0.1104 1.545 0.33858 2.6412 1.1261 1.4347 4.4823 1.4347 4.519-0.22807 0.54465-0.25014 0.7949-0.02212 0.9421l0.09567 0.05892h0.07355c0.11772 0 0.26486-0.05892 0.50764-0.13248 0.36052-0.13247 0.90494-0.30177 1.4126-0.30177 1.9791 0.01466 3.5978 1.6413 3.5978 3.5992 0 1.9799-1.6186 3.577-3.5978 3.577" fill="#283373"/>
   <path d="m159.8 10.909c-1.6554-2.0756-4.1641-3.1059-7.5338-3.1059-3.3697 0-5.8784 1.0304-7.5338 3.1059-1.6554 2.0756-2.4867 4.5191-2.4867 7.3454 0 2.8851 0.83135 5.336 2.4867 7.3896 1.6554 2.0314 4.1641 3.0692 7.5338 3.0692 3.3697 0 5.8784-1.0157 7.5338-3.0692 1.6554-2.0534 2.4867-4.5044 2.4867-7.3896 0-2.8263-0.83138-5.2699-2.4867-7.3454m-4.1053 11.887c-0.80931 1.0746-1.9571 1.6045-3.4431 1.6045-1.5082 0-2.656-0.52994-3.4725-1.6045-0.80929-1.0672-1.1992-2.5761-1.1992-4.5413 0-1.9579 0.38994-3.4814 1.1992-4.5338 0.81664-1.0599 1.9644-1.5898 3.4725-1.5898 1.5009 0 2.6485 0.52992 3.4431 1.5898 0.8093 1.0525 1.2066 2.5761 1.2066 4.5338 0 1.9652-0.39727 3.4888-1.2066 4.5413" fill="#283373"/>
   <path d="m117.5 9.1572c-1.6774-0.84642-3.5978-1.2807-5.7607-1.2807-3.3181 0-5.6724 0.8685-7.0409 2.5981-0.86816 1.1114-1.339 2.5244-1.4567 4.2394h4.9734c0.11772-0.75074 0.36052-1.3543 0.73573-1.8106 0.50765-0.59618 1.3758-0.89793 2.6191-0.89793 1.0889 0 1.9422 0.14721 2.5014 0.47105 0.56651 0.30177 0.85343 0.86113 0.85343 1.6708 0 0.6624-0.38257 1.1555-1.1109 1.472-0.41937 0.19136-1.0962 0.33858-2.0526 0.45634l-1.7584 0.2208c-1.9938 0.25024-3.5168 0.67715-4.5395 1.266-1.8834 1.0893-2.8252 2.8263-2.8252 5.2552 0 1.8621 0.58857 3.3194 1.7584 4.3131 1.1624 1.0157 2.656 1.4499 4.4438 1.5309 11.22 0.50785 11.109-5.9175 11.205-7.2572v-7.3896c-0.022-2.3699-0.86813-3.9892-2.5457-4.8576m-2.6191 11.231c-0.0368 1.7149-0.52238 2.9-1.4641 3.5623-0.94172 0.65507-1.9791 0.9789-3.112 0.9789-0.71365 0-1.3169-0.19135-1.8025-0.58881-0.49293-0.39009-0.73573-1.0304-0.73573-1.8989 0-0.9789 0.39729-1.7149 1.2066-2.186 0.48556-0.28704 1.2581-0.50785 2.369-0.69921l1.1698-0.22815c0.58123-0.1104 1.0374-0.22081 1.3758-0.35329 0.33843-0.13248 0.65479-0.28704 0.99323-0.49313z" fill="#283373"/>
   <path d="m91.889 12.285c1.2802 0 2.2219 0.39746 2.8399 1.185 0.41936 0.58881 0.67687 1.2439 0.77251 1.9799h5.54c-0.30166-2.7896-1.2802-4.7472-2.9355-5.8587-1.6627-1.0967-3.7889-1.656-6.3713-1.656-3.0459 0-5.4443 0.9421-7.1733 2.8042-1.7363 1.8621-2.5971 4.4823-2.5971 7.8607 0 2.9734 0.78722 5.4024 2.3543 7.2866 1.5597 1.8695 4.0097 2.8116 7.3424 2.8116 3.3328 0 5.8417-1.1335 7.5338-3.3784 1.0521-1.3911 1.6554-2.863 1.7878-4.4235h-5.5179c-0.11035 1.0378-0.43408 1.8621-0.95643 2.5244-0.52972 0.64033-1.4347 0.9789-2.7001 0.9789-1.7878 0-3.0092-0.80962-3.6492-2.451-0.3605-0.8685-0.52972-2.0314-0.52972-3.4665 0-1.5088 0.19128-2.7085 0.52972-3.6359 0.65481-1.6928 1.8981-2.5614 3.7302-2.5614" fill="#283373"/>
   <path d="m80.471 7.9502c-11.374 0-10.697 10.083-10.697 10.083v10.231h5.1648v-9.6124c0-1.5603 0.20601-2.7306 0.58122-3.5035 0.71366-1.3395 2.0895-2.0167 4.1641-2.0167 0.14715 0 0.35314 0 0.61799 0.02213 0.25014 0.01466 0.52972 0.03679 0.86816 0.07358v-5.2403c-0.22807-0.014755-0.37522-0.014755-0.43407-0.036789h-0.26485" fill="#283373"/>
   <path d="m61.503 22.914c-0.22072 0.30178-0.44879 0.56672-0.71366 0.77282-0.73572 0.60352-1.7142 0.78754-2.8839 0.78754-1.1109 0-1.9571-0.16928-2.7442-0.65506-1.2802-0.7949-2.0159-2.1344-2.0895-4.107h14.295c0.01465-1.7002-0.04415-2.9955-0.1692-3.9008-0.25016-1.5456-0.75781-2.8851-1.5671-4.0554-0.88286-1.3175-2.0159-2.2965-3.3917-2.9-1.3758-0.60353-2.8988-0.92001-4.6129-0.92001-2.8839 0-5.2162 0.89793-7.0042 2.7085-1.8099 1.8106-2.7148 4.4309-2.7148 7.8237 0 3.6359 1.0006 6.2561 2.9943 7.8533 2.0012 1.6045 4.2965 2.414 6.9158 2.414 3.1636 0 5.6283-0.96418 7.3793-2.863 0.94172-1.001 1.545-2.002 1.7878-2.9808h-5.4812zm-6.9305-9.6124c0.73572-0.75075 1.751-1.1114 3.0753-1.1114 1.1992 0 2.2219 0.36065 3.0459 1.0599 0.8093 0.69186 1.2802 1.7296 1.3611 3.0839h-8.836c0.1692-1.2807 0.62536-2.2965 1.3537-3.0324" fill="#283373"/>
   <path d="m45.84 28.265h-4.7086v-11.894c0-1.0893-0.36052-3.6727-3.4727-3.6727-2.0675 0-3.5755 1.4941-3.5755 3.6727v11.894h-4.7233v-11.894c0-1.0893-0.32372-3.6727-3.4284-3.6727-2.1115 0-3.5829 1.4941-3.5829 3.6727v11.894h-4.7233v-11.776c0-4.9019 3.2593-8.6113 8.2842-8.6113 2.5087 0 4.5395 1.0525 5.8564 2.7306 1.3979-1.6781 3.4652-2.7306 5.8564-2.7306 5.1428 0 8.196 3.5623 8.196 8.6113v11.776z" fill="#283373"/>
   <path d="m140.71 1.7529s-5.1942-0.54465-5.1942 3.6139v5.5422c-0.58857-0.92002-1.3243-1.6413-2.2439-2.1638-0.91965-0.52994-1.9791-0.7949-3.1636-0.7949-2.5824 0-4.635 0.96418-6.18 2.8851-1.545 1.9209-2.3176 4.6884-2.3176 8.0446 0 2.9 0.79457 5.2919 2.3543 7.1394 1.5671 1.8474 4.635 2.6571 7.3647 2.6571 9.5129 0 9.4026-8.155 9.4026-8.155zm-6.1948 21.101c-0.75044 1.0746-1.8614 1.6192-3.3181 1.6192-1.4494 0-2.5381-0.54464-3.2373-1.634-0.71365-1.0967-1.0742-2.6791-1.0742-4.4897 0-1.6781 0.3605-3.0912 1.0594-4.2174 0.69158-1.1335 1.8025-1.7002 3.296-1.7002 0.97851 0 1.8393 0.32386 2.5971 0.9421 1.2066 1.0378 1.8099 2.8851 1.8099 5.2773 0.0151 1.7149-0.38257 3.1133-1.133 4.2027" fill="#283373"/>
   <path d="m81.53 52.942c-0.20602 0.30178-0.45616 0.56672-0.69894 0.77282-0.73571 0.60353-1.751 0.80962-2.8988 0.80962-1.0962 0-1.9422-0.16928-2.7295-0.65506-1.2875-0.7949-1.9644-2.1491-2.0379-4.107h14.163c0.02202-1.6781-0.03677-2.9588-0.16921-3.8641-0.2428-1.5235-0.75044-2.863-1.545-4.0333-0.88287-1.3175-2.0159-2.2595-3.3474-2.8851-1.3611-0.59618-2.8839-0.89793-4.5836-0.89793-2.8399 0-5.1574 0.89793-6.9452 2.6938-1.7878 1.8032-2.6781 4.3866-2.6781 7.7429 0 3.5992 0.97851 6.1973 2.9796 7.7797 1.9791 1.6045 4.2525 2.392 6.8569 2.392 3.1269 0 5.5694-0.9421 7.3057-2.841 0.94172-1.001 1.5229-1.9799 1.7731-2.9588h-5.4443zm-6.8789-9.5314c0.721-0.73602 1.7363-1.1114 3.0312-1.1114 1.2066 0 2.2072 0.36066 3.0165 1.0525 0.80931 0.69921 1.2654 1.7149 1.3537 3.0765h-8.755c0.19128-1.2659 0.64007-2.2669 1.3537-3.0177" fill="#283373"/>
   <path d="m46.046 38.157c-1.1919 0-2.2439 0.26496-3.1636 0.77283-0.92701 0.52256-1.6774 1.2439-2.2439 2.1638v-9.2885s-5.2015-0.50784-5.2015 3.7096v15.059s-0.11035 8.155 9.4025 8.155c2.7295 0 5.7974-0.80962 7.3647-2.6718 1.5597-1.8474 2.3543-4.2394 2.3543-7.1394 0-3.3561-0.77251-5.9765-2.3176-7.8974-1.5671-1.9062-3.6198-2.863-6.1948-2.863m2.1262 14.75c-0.71366 1.0966-1.7878 1.6192-3.2373 1.6192-1.4494 0-2.5677-0.52257-3.3181-1.6192-0.75044-1.0746-1.133-2.4657-1.133-4.2027 0-2.392 0.60329-4.107 1.8099-5.1374 0.75778-0.62561 1.6039-0.9421 2.6044-0.9421 1.5009 0 2.5971 0.55939 3.296 1.6928 0.69158 1.1335 1.0521 2.5467 1.0521 4.2174 0 1.8327-0.36051 3.2826-1.0742 4.3719" fill="#283373"/>
   <path d="m67.065 38.134h-0.25014c-11.374 0-10.712 10.083-10.712 10.083v10.076h5.1574v-9.4357c0-1.5824 0.19128-2.7306 0.60329-3.4888 0.69893-1.3322 2.0895-2.0167 4.1641-2.0167 0.14715 0 0.35314 0 0.60328 0.02213 0.2428 0.02203 0.54442 0.03679 0.86816 0.07358v-5.2552c-0.21336-0.05892-0.36052-0.05892-0.43408-0.05892" fill="#283373"/>
   <path d="m17.624 35.513v22.742h4.841v-26.452c0.01465 0-4.841-0.2061-4.841 3.7096" fill="#283373"/>
   <path d="m26.439 31.768h5.1795v5.1448h-5.1795z" fill="#283373"/>
   <path d="m26.439 38.664h5.1942v19.614h-5.1942z" fill="#283373"/>
</svg>