<?xml version="1.0" encoding="UTF-8"?>
<svg
   version="1.1"
   xmlns="http://www.w3.org/2000/svg"
   xml:space="preserve"
   viewBox="0 0 27.132622 63.5187"
   height="71"
   width="102"
>
   <path d="M 58.946459,30.015 C 58.946459,13.492 38.52365,0 13.3266,0 -11.890342,0.014755 -32.306189,13.491 -32.306189,30.015 v 1.7517 c 0,17.539 17.85566,31.752 45.619859,31.752 27.931298,0 45.611902,-14.212 45.611902,-31.752 V 30.015 Z" fill="#283373" />
   <path d="m 57.183571,30.015 c 0,15.581 -19.63307,28.225 -43.855379,28.225 -24.222309,0 -43.870299,-12.645 -43.870299,-28.225 0,-15.581 19.63307,-28.225 43.855379,-28.225 24.22231,0 43.870299,12.623 43.870299,28.225" fill="#ffcf00" />
   <path d="m -1.250052,21.103 c -0.01457,0.03679 -0.468343,0.50784 -0.168301,0.8685 0.695169,0.88322 2.83192,1.3911 4.983412,0.9053 1.295211,-0.28704 2.941728,-1.6192 4.53702,-2.8851 1.719622,-1.3763 3.446604,-2.7675 5.166325,-3.3194 1.83679,-0.58144 3.000312,-0.33856 3.790549,-0.08833 0.841539,0.25761 1.85141,0.80963 3.446604,2.0167 2.993051,2.2595 15.059745,12.865 17.160411,14.691 1.683019,-0.75075 9.139786,-3.9892 19.275002,-6.2341 -0.878132,-5.4464 -4.178455,-10.422 -9.161768,-14.492 -6.951791,2.944 -15.454615,4.4676 -23.753836,0.39745 -0.03657,-0.01466 -4.537021,-2.1638 -8.971594,-2.0534 -6.593227,0.15456 -9.447228,3.0177 -12.476683,6.0648 z" fill="#ffffff" />
   <path d="M 37.176618,34.447 C 37.030248,34.31452 22.995134,21.95 19.811312,19.543 c -1.836789,-1.3984 -2.868423,-1.7591 -3.936958,-1.8842 -0.556159,-0.08095 -1.324553,0.03679 -1.873293,0.18401 -1.478224,0.39745 -3.410001,1.7149 -5.129822,3.0692 -1.778205,1.4352 -3.468685,2.7748 -5.020014,3.1281 -1.990461,0.45633 -4.419953,-0.07358 -5.524891,-0.82433 -0.453702,-0.30178 -0.768364,-0.66242 -0.922035,-1.0157 -0.409789,-0.96418 0.336624,-1.7149 0.468343,-1.8474 l 3.878374,-4.2247 c 0.453702,-0.44896 0.900084,-0.9053 1.368417,-1.3543 -1.258609,0.16928 -2.41497,0.48576 -3.541691,0.78754 -1.405019,0.39745 -2.751554,0.77282 -4.119871,0.77282 -0.56346,0 -3.636878,-0.50784 -4.215058,-0.65506 -3.505188,-0.96418 -6.593226,-1.9062 -11.18167,-4.0702 -5.510269,4.1217 -9.19847,9.2885 -10.266606,14.956 0.782995,0.21344 2.056404,0.58881 2.605044,0.72129 12.476683,2.7896 16.347796,5.6673 17.064927,6.2561 0.768374,-0.85376 1.851411,-1.3984 3.088038,-1.3984 1.390398,0 2.627026,0.6992 3.373499,1.7738 0.70983,-0.56672 1.705,-1.0599 2.978231,-1.0599 0.578091,0 1.178143,0.11776 1.778206,0.32386 1.405019,0.49313 2.136771,1.4352 2.509858,2.2816 0.468333,-0.2061 1.053714,-0.37537 1.741603,-0.37537 0.673237,0 1.368417,0.14721 2.078287,0.44897 2.305162,1.001 2.663727,3.2606 2.458733,4.9754 0.168302,-0.02203 0.336624,-0.02203 0.504916,-0.02203 2.736734,0 4.94671,2.2228 4.94671,4.9754 0,0.84642 -0.226836,1.6413 -0.600042,2.3552 0.746413,0.41216 2.641746,1.3763 4.288263,1.1482 1.331814,-0.16927 1.836789,-0.61824 2.005081,-0.88322 0.13172,-0.16927 0.263429,-0.37536 0.13172,-0.52993 l -3.519809,-3.9376 c 0,0 -0.585422,-0.54465 -0.395168,-0.77283 0.204904,-0.2208 0.56346,0.09571 0.804957,0.30178 1.800187,1.5088 3.97356,3.7684 3.97356,3.7684 0.03657,0.02203 0.182953,0.32386 0.98789,0.45634 0.69517,0.13248 1.931777,0.05154 2.773436,-0.66241 0.226836,-0.16928 0.431741,-0.39745 0.622004,-0.61826 -0.022,0.01466 -0.022,0.01466 -0.03657,0.03679 0.892763,-1.1482 -0.09516,-2.3405 -0.09516,-2.3405 l -4.10525,-4.6295 c 0,0 -0.578091,-0.55201 -0.395158,-0.77282 0.190253,-0.19136 0.56346,0.08833 0.804957,0.31649 1.295211,1.0967 3.153982,2.9588 4.910207,4.6958 0.336614,0.24288 1.895274,1.2218 3.936958,-0.13248 1.236727,-0.8317 1.500106,-1.8327 1.456243,-2.5834 -0.08783,-1.001 -0.856171,-1.7149 -0.856171,-1.7149 l -5.619977,-5.6746 c 0,0 -0.600043,-0.50785 -0.373207,-0.77282 0.168302,-0.22081 0.55616,0.09571 0.804957,0.30177 1.778206,1.5088 6.629929,5.9765 6.629929,5.9765 0.07315,0.05892 1.741603,1.2439 3.805169,-0.07358 0.724451,-0.47104 1.214746,-1.1923 1.251348,-2.0167 0.07316,-1.4132 -0.936666,-2.2595 -0.936666,-2.2595" fill="#ffffff" />
   <path d="m 9.954495,41.637 c -0.856171,-0.01466 -1.814809,0.51521 -1.946598,0.43426 -0.07315,-0.03679 0.05858,-0.39009 0.13171,-0.60353 0.07315,-0.2061 1.236727,-3.6727 -1.55133,-4.8797 -2.136771,-0.92002 -3.446604,0.11776 -3.900256,0.58881 -0.109758,0.1104 -0.168302,0.1104 -0.190254,-0.03679 -0.03657,-0.62561 -0.314672,-2.3185 -2.165914,-2.8851 -2.641746,-0.80962 -4.332126,1.0378 -4.763896,1.7149 -0.182953,-1.5088 -1.456243,-2.6938 -3.014933,-2.6938 -1.683119,0 -3.051536,1.3764 -3.073418,3.0692 0,1.6928 1.368417,3.0692 3.058797,3.0692 0.819588,0 1.573311,-0.31649 2.114789,-0.86114 0.01457,0.01466 0.01457,0.03679 0.01457,0.1104 -0.13171,0.75075 -0.373207,3.5255 2.509858,4.6517 1.163522,0.45633 2.136771,0.11776 2.96361,-0.44897 0.241497,-0.16928 0.278079,-0.09571 0.241497,0.13248 -0.109758,0.71394 0.022,2.2375 2.158653,3.1059 1.609914,0.66242 2.561181,-0.01465 3.197746,-0.60352 0.28543,-0.24287 0.358606,-0.20608 0.358606,0.1693 0.07315,2.0534 1.778205,3.6947 3.841871,3.6947 2.136771,0 3.856492,-1.7296 3.856492,-3.8641 0,-2.1271 -1.719621,-3.8421 -3.841871,-3.8641" fill="#ffffff" />
   <path d="M 37.717699,32.953 C 33.392933,29.1479 23.390004,20.404 20.674654,18.373 c -1.55869,-1.1702 -2.605044,-1.7885 -3.527169,-2.0756 -0.409789,-0.13248 -0.98789,-0.26496 -1.741603,-0.26496 -0.687869,0 -1.419641,0.13248 -2.209976,0.38272 -1.741604,0.55938 -3.497927,1.9579 -5.188208,3.2973 l -0.09516,0.07358 c -1.573311,1.2586 -3.197747,2.5614 -4.419952,2.8263 -0.541519,0.1104 -1.083057,0.18401 -1.631896,0.18401 -1.361056,0 -2.619665,-0.39008 -3.066057,-0.99361 -0.08048,-0.09571 -0.0219,-0.26498 0.146371,-0.49313 l 0.022,-0.03679 3.797809,-4.129 c 2.978231,-2.9955 5.788269,-5.8218 12.29367,-5.9691 h 0.314662 c 4.031946,0 8.078811,1.8253 8.525202,2.0314 3.783188,1.8695 7.683644,2.8116 11.613341,2.8116 4.083269,0 8.320209,-1.0157 12.762142,-3.0692 -0.490305,-0.41954 -1.017212,-0.8317 -1.536709,-1.2292 -3.900256,1.7002 -7.610438,2.5614 -11.203551,2.5614 -3.651499,0 -7.325177,-0.88322 -10.866371,-2.6349 -0.190253,-0.09571 -4.646828,-2.2081 -9.271575,-2.2081 h -0.373207 c -5.451785,0.13248 -8.510581,2.0756 -10.588868,3.7684 -2.005081,0.05892 -3.724803,0.52994 -5.283393,0.96418 -1.368417,0.37537 -2.561182,0.71394 -3.710182,0.71394 -0.468343,0 -1.324554,-0.03679 -1.405019,-0.03679 -1.324454,-0.03679 -8.034948,-1.6928 -13.369864,-3.7316 -0.548828,0.39745 -1.068435,0.7949 -1.580671,1.1923 5.568853,2.2965 12.352353,4.0627 14.503745,4.2174 0.600053,0.03679 1.236728,0.1104 1.873293,0.1104 1.41964,0 2.82466,-0.39009 4.193076,-0.78754 0.804957,-0.22816 1.705001,-0.47105 2.641747,-0.66241 -0.241487,0.2429 -0.504916,0.49314 -0.746413,0.75808 l -3.856492,4.1954 c -0.300031,0.30177 -0.98058,1.1334 -0.526878,2.1491 0.168302,0.41953 0.526878,0.80962 1.009852,1.1334 0.922035,0.61827 2.568541,1.0525 4.10525,1.0525 0.578101,0 1.119659,-0.05154 1.624535,-0.16928 1.631796,-0.35328 3.322175,-1.7296 5.115201,-3.1649 1.441622,-1.1482 3.490567,-2.5981 5.041897,-3.0324 0.43174,-0.11039 0.973258,-0.19135 1.405019,-0.19135 0.131719,0 0.241497,0 0.358575,0.02213 1.024473,0.13248 2.019603,0.49313 3.797809,1.8253 3.168604,2.392 17.240977,14.757 17.365306,14.889 0,0 0.900084,0.78754 0.84885,2.0683 -0.03657,0.72129 -0.43174,1.3616 -1.12692,1.8106 -0.600042,0.37537 -1.214745,0.58145 -1.836789,0.58145 -0.936666,0 -1.587933,-0.44897 -1.631796,-0.47105 -0.05124,-0.03679 -4.866344,-4.4823 -6.629928,-5.9691 -0.27807,-0.22815 -0.56346,-0.45633 -0.819588,-0.45633 -0.153671,0 -0.28538,0.05892 -0.380507,0.16928 -0.27808,0.34591 0.03657,0.8317 0.395158,1.1335 l 5.619977,5.6893 c 0,0 0.69517,0.66242 0.768365,1.5309 0.03657,0.9421 -0.409789,1.7296 -1.331815,2.3332 -0.651286,0.43424 -1.324553,0.6624 -1.9831,0.6624 -0.863501,0 -1.463504,-0.39745 -1.609914,-0.49313 l -0.804957,-0.78754 c -1.485485,-1.4573 -3.000311,-2.9808 -4.10525,-3.9008 -0.263448,-0.22816 -0.56346,-0.43426 -0.841539,-0.43426 -0.13172,0 -0.263429,0.05154 -0.358586,0.14721 -0.131719,0.15456 -0.219525,0.39745 0.09516,0.8317 0.131719,0.16928 0.27808,0.31649 0.27808,0.31649 l 4.10525,4.6368 c 0.03657,0.03679 0.841539,1.0157 0.09516,1.9799 l -0.153661,0.19136 c -0.13172,0.12512 -0.256128,0.2576 -0.373207,0.37536 -0.695169,0.58145 -1.631795,0.64033 -2.005081,0.64033 -0.204915,0 -0.387848,-0.02213 -0.56346,-0.05892 -0.409799,-0.07358 -0.673228,-0.19138 -0.804947,-0.33858 l -0.05124,-0.05892 c -0.226836,-0.22081 -2.290541,-2.3552 -4.010064,-3.7831 -0.226836,-0.19136 -0.504915,-0.43426 -0.804956,-0.43426 -0.153671,0 -0.263419,0.05892 -0.373207,0.16928 -0.336624,0.37537 0.168302,0.92002 0.387828,1.1335 l 3.505188,3.8788 c 0,0.03679 -0.05848,0.1104 -0.13171,0.2429 -0.131719,0.16928 -0.541508,0.60352 -1.814808,0.75808 -0.153671,0.01465 -0.321993,0.03679 -0.468343,0.03679 -1.309833,0 -2.700231,-0.64032 -3.431983,-1.0231 0.321993,-0.69186 0.504926,-1.4647 0.504926,-2.2228 0,-2.9 -2.341666,-5.2552 -5.224909,-5.2552 H 9.734666 c 0.08783,-1.3175 -0.09516,-3.8272 -2.641747,-4.9387 -0.731762,-0.31648 -1.463504,-0.48576 -2.195355,-0.48576 -0.56346,0 -1.083056,0.09571 -1.587932,0.27969 -0.526877,-1.0378 -1.405019,-1.7885 -2.553921,-2.1861 -0.636645,-0.2208 -1.251348,-0.33856 -1.873292,-0.33856 -1.068436,0 -2.041585,0.32385 -2.919747,0.9421 -0.841539,-1.0525 -2.100168,-1.6781 -3.424622,-1.6781 -1.163523,0 -2.290542,0.47104 -3.11012,1.3027 -1.090317,-0.8317 -5.415083,-3.5992 -16.977399,-6.234 -0.56346,-0.13248 -1.85141,-0.49314 -2.641746,-0.736 -0.13172,0.61824 -0.219536,1.2586 -0.300031,1.8989 0,0 2.136771,0.50784 2.546659,0.60352 11.825198,2.6422 15.718193,5.3877 16.37664,5.9028 -0.226846,0.54464 -0.336613,1.1261 -0.336613,1.7149 0,2.4436 1.9831,4.4456 4.419952,4.4456 0.27807,0 0.541498,-0.02203 0.804957,-0.08095 0.373196,1.8106 1.536708,3.1869 3.336796,3.8862 0.519547,0.2061 1.046454,0.30178 1.573311,0.30178 0.336624,0 0.673238,-0.03679 1.009852,-0.13248 0.336623,0.84642 1.090317,1.8989 2.751554,2.5834 0.585411,0.24289 1.163522,0.35329 1.741603,0.35329 0.468333,0 0.922035,-0.07358 1.353796,-0.2429 0.804957,1.9579 2.69297,3.2606 4.829641,3.2606 1.40502,0 2.758915,-0.56672 3.746685,-1.6045 0.84154,0.47105 2.627026,1.3175 4.419953,1.3175 0.226846,0 0.453712,-0.01465 0.680558,-0.03679 1.778205,-0.22081 2.619665,-0.92002 2.993051,-1.4647 0.07315,-0.09571 0.131719,-0.19136 0.190253,-0.30177 0.409789,0.1104 0.878122,0.2208 1.419641,0.2208 0.973258,0 1.909895,-0.33856 2.868423,-1.0304 0.936666,-0.68449 1.595293,-1.6413 1.683119,-2.473 V 45.2956 c 0.321973,0.05892 0.636635,0.09571 0.958628,0.09571 1.009851,0 1.9831,-0.32386 2.941728,-0.9421 1.814808,-1.2071 2.136771,-2.7675 2.100168,-3.7904 0.314672,0.08096 0.636645,0.09571 0.973259,0.09571 0.936666,0 1.873293,-0.27969 2.751554,-0.84642 1.12692,-0.71395 1.800187,-1.8253 1.909895,-3.1281 0.07316,-0.88322 -0.14635,-1.7738 -0.600042,-2.5244 3.058796,-1.3175 10.02491,-3.8788 18.228647,-5.7483 -0.05858,-0.64033 -0.14637,-1.2807 -0.263428,-1.8989 -9.944843,2.2965 -17.343424,5.5201 -19.201399,6.3445 M 9.95439,49.1009 c -1.924516,0 -3.497927,-1.5088 -3.556312,-3.4298 0,-0.16927 -0.0219,-0.60352 -0.395158,-0.60352 -0.14637,0 -0.278079,0.09571 -0.43175,0.22816 -0.431741,0.39745 -0.951298,0.79488 -1.756225,0.79488 -0.358565,0 -0.753713,-0.08096 -1.163522,-0.25024 -2.041585,-0.82434 -2.063665,-2.2375 -1.9831,-2.8042 0.01457,-0.15456 0.03657,-0.30178 -0.08049,-0.43426 L 0.478055,42.50621 H 0.346336 c -0.109758,0 -0.204904,0.03679 -0.358585,0.15456 -0.578091,0.41217 -1.156162,0.61824 -1.719622,0.61824 -0.321973,0 -0.636635,-0.05892 -0.973259,-0.184 -2.678349,-1.0599 -2.473355,-3.5992 -2.341665,-4.3572 0.01457,-0.14722 -0.0219,-0.27968 -0.117089,-0.35328 l -0.182952,-0.15456 -0.168302,0.13248 c -0.526878,0.50784 -1.200125,0.7949 -1.931778,0.7949 -1.536708,0 -2.788057,-1.266 -2.788057,-2.8116 0,-1.5456 1.251349,-2.8042 2.788057,-2.7896 1.390399,0 2.568542,1.0599 2.751555,2.451 l 0.09516,0.75075 0.41712,-0.64033 c 0.03657,-0.07358 1.178143,-1.7885 3.234548,-1.7885 0.395158,0 0.812257,0.05892 1.222106,0.19136 1.646516,0.50784 1.931777,2.0167 1.968479,2.6349 0.03657,0.36066 0.27808,0.37537 0.336624,0.37537 0.14637,0 0.241497,-0.08833 0.314672,-0.16928 0.321983,-0.31648 0.99523,-0.86113 2.041585,-0.86113 0.490284,0 0.99523,0.1104 1.536708,0.33858 2.627026,1.1261 1.427001,4.4823 1.427001,4.519 -0.226846,0.54465 -0.248798,0.7949 -0.022,0.9421 l 0.09516,0.05892 h 0.07316 c 0.117088,0 0.263438,-0.05892 0.504915,-0.13248 0.358586,-0.13247 0.900084,-0.30177 1.40502,-0.30177 1.968479,0.01466 3.578492,1.6413 3.578492,3.5992 0,1.9799 -1.609914,3.577 -3.578492,3.577" fill="#283373" />
</svg>